<?xml version="1.0" encoding="utf-8"?>
<!-- Generator: Adobe Illustrator 16.0.0, SVG Export Plug-In . SVG Version: 6.00 Build 0)  -->
<!DOCTYPE svg PUBLIC "-//W3C//DTD SVG 1.1//EN" "http://www.w3.org/Graphics/SVG/1.1/DTD/svg11.dtd">
<svg version="1.1" id="Layer_1" xmlns="http://www.w3.org/2000/svg" xmlns:xlink="http://www.w3.org/1999/xlink" x="0px" y="0px"
	 width="91.387px" height="26.334px" viewBox="0 0 91.387 26.334" enable-background="new 0 0 91.387 26.334" xml:space="preserve">
<g>
	<path fill="#FFFFFF" d="M28.29,7.019h3.821c4.181,0,5.391,2.949,5.391,6.001c0,3.422-1.684,6.032-5.423,6.032H28.29V7.019z
		 M29.009,18.412h3.137c2.172,0,4.641-1.229,4.641-5.393c0-4.925-3.055-5.362-4.786-5.362h-2.99L29.009,18.412L29.009,18.412z"/>
	<path fill="#FFFFFF" d="M38.857,14.804c-0.049,2.041,1.014,3.896,3.087,3.896c1.583,0,2.693-0.965,3.005-2.58h0.62
		c-0.327,2.039-1.616,3.137-3.625,3.137c-2.436,0-3.758-1.988-3.709-4.383c-0.048-2.375,1.177-4.687,3.709-4.687
		c2.612,0,3.82,2.124,3.688,4.617H38.857L38.857,14.804z M45.015,14.25c-0.049-1.821-1.159-3.505-3.069-3.505
		c-1.861,0-2.957,1.786-3.087,3.505H45.015z"/>
	<path fill="#FFFFFF" d="M46.881,16.171c0.082,1.604,1.271,2.529,2.777,2.529c1.094,0,2.66-0.338,2.66-1.84
		c0-2.93-5.766-0.908-5.766-4.449c0-1.702,1.613-2.225,3.033-2.225c1.766,0,3.104,0.792,3.104,2.764h-0.619
		c0-1.566-1.077-2.208-2.483-2.208c-1.125,0-2.416,0.438-2.416,1.668c0,1.397,1.438,1.584,2.793,1.901
		c1.666,0.32,2.977,0.742,2.977,2.547c0,1.871-1.813,2.395-3.283,2.395c-1.912,0-3.352-1.063-3.399-3.082H46.881L46.881,16.171z"/>
	<path fill="#FFFFFF" d="M54.057,8.754V7.019h0.621v1.736L54.057,8.754L54.057,8.754z M54.057,19.054v-8.665h0.621v8.663
		L54.057,19.054L54.057,19.054z"/>
	<path fill="#FFFFFF" d="M63.067,10.389v8.208c0,0.676,0,3.896-3.627,3.764c-1.78,0-3.198-0.693-3.282-2.697h0.622
		c0.132,1.531,1.308,2.137,2.679,2.137c2.938,0,2.987-2.479,2.987-3.051v-1.988h-0.03c-0.59,1.28-1.603,1.975-3.039,1.975
		c-2.465,0-3.625-1.875-3.625-4.282c0-2.292,1.271-4.265,3.625-4.265c1.326,0,2.563,0.725,3.039,2.007h0.03v-1.804L63.067,10.389
		L63.067,10.389z M56.37,14.451c0,2.041,1.024,3.729,3.004,3.729c2.041,0,3.053-1.771,3.053-3.729c0-1.955-1.012-3.708-3.053-3.708
		C57.35,10.744,56.37,12.615,56.37,14.451z"/>
	<path fill="#FFFFFF" d="M64.477,10.389h0.619v1.854h0.032c0.439-1.298,1.681-2.056,3.006-2.056c2.955,0,2.988,2.442,2.988,3.507
		v5.357h-0.621v-5.478c0-0.877-0.098-2.833-2.385-2.833c-1.896,0-3.021,1.518-3.021,3.625v4.686h-0.619L64.477,10.389L64.477,10.389
		z"/>
	<path fill="#FFFFFF" d="M72.723,14.804c-0.052,2.041,1.01,3.896,3.084,3.896c1.586,0,2.696-0.965,3.006-2.58h0.619
		c-0.324,2.039-1.613,3.137-3.625,3.137c-2.437,0-3.757-1.988-3.707-4.383c-0.05-2.375,1.178-4.687,3.707-4.687
		c2.614,0,3.821,2.124,3.692,4.617H72.723L72.723,14.804z M78.879,14.25c-0.049-1.821-1.155-3.505-3.069-3.505
		c-1.86,0-2.957,1.786-3.086,3.505H78.879z"/>
	<path fill="#FFFFFF" d="M81.143,12.312h0.051c0.312-1.146,1.699-2.023,3.218-1.973v0.641c-0.652-0.083-1.554,0.085-2.318,0.844
		c-0.604,0.673-0.896,1.195-0.945,2.494v4.736h-0.619v-8.665h0.619v1.923H81.143L81.143,12.312z"/>
	<path fill="#FFFFFF" d="M84.403,10.389h0.734l3.118,7.907l2.875-7.907h0.701l-3.595,9.594c-0.346,0.855-0.604,1.498-0.979,1.785
		c-0.439,0.354-0.996,0.387-1.961,0.387v-0.555c0.896,0,1.307-0.104,1.746-0.559c0.246-0.254,0.477-0.896,0.867-2.041L84.403,10.389
		z"/>
</g>
<g opacity="0.15">
	<g>
		<circle fill="#FFFFFF" cx="9.294" cy="13.035" r="0.899"/>
	</g>
	<g>
		<circle fill="#FFFFFF" cx="22.792" cy="5.241" r="0.9"/>
	</g>
	<g>
		<circle fill="#FFFFFF" cx="14.081" cy="0.768" r="0.9"/>
	</g>
	<g>
		<circle fill="#FFFFFF" cx="22.792" cy="13.035" r="0.899"/>
	</g>
	<g>
		<circle fill="#FFFFFF" cx="14.082" cy="25.302" r="0.9"/>
	</g>
	<g>
		<circle fill="#FFFFFF" cx="32.538" cy="13.036" r="0.899"/>
	</g>
	<g>
		<circle fill="#FFFFFF" cx="14.117" cy="13.035" r="0.899"/>
	</g>
	<g>
		<path fill="#FFFFFF" d="M22.792,19.929c0.495,0,0.899,0.403,0.898,0.898c0.001,0.496-0.404,0.9-0.898,0.898
			c-0.498,0-0.899-0.402-0.899-0.897C21.89,20.332,22.293,19.927,22.792,19.929z"/>
	</g>
	<g>
		<path fill="#FFFFFF" d="M22.95,21.103L8.974,13.036l13.977-8.07V21.103z M9.609,13.036l13.024,7.516V5.515L9.609,13.036z"/>
	</g>
	<g>
		
			<rect x="10.7" y="4.639" transform="matrix(-0.1738 -0.9848 0.9848 -0.1738 12.6366 20.1981)" fill="#FFFFFF" width="8.182" height="0.317"/>
	</g>
	<g>
		
			<rect x="14.607" y="17.219" transform="matrix(-0.9861 -0.1664 0.1664 -0.9861 25.7824 44.7392)" fill="#FFFFFF" width="0.317" height="8.141"/>
	</g>
	<g>
		<rect x="14.118" y="12.877" fill="#FFFFFF" width="18.419" height="0.317"/>
	</g>
	<g>
		<path fill="#FFFFFF" d="M9.292,13.036"/>
	</g>
	<g>
		
			<rect x="11.527" y="0.318" transform="matrix(-0.9318 -0.3629 0.3629 -0.9318 20.0701 17.5753)" fill="#FFFFFF" width="0.318" height="13.169"/>
	</g>
	<g>
		
			<rect x="13.541" y="2.846" transform="matrix(-0.8897 -0.4566 0.4566 -0.8897 33.4696 14.0956)" fill="#FFFFFF" width="9.793" height="0.317"/>
	</g>
	<g>
		
			<rect x="21.425" y="8.978" transform="matrix(-0.781 -0.6246 0.6246 -0.781 43.562 33.5513)" fill="#FFFFFF" width="12.478" height="0.318"/>
	</g>
	<g>
		
			<rect x="27.504" y="10.694" transform="matrix(-0.6236 -0.7818 0.7818 -0.6236 31.6758 49.118)" fill="#FFFFFF" width="0.318" height="12.478"/>
	</g>
	<g>
		
			<rect x="18.278" y="18.169" transform="matrix(-0.4583 -0.8888 0.8888 -0.4583 6.3836 50.0218)" fill="#FFFFFF" width="0.318" height="9.793"/>
	</g>
	<g>
		
			<rect x="5.102" y="19.01" transform="matrix(-0.3638 -0.9315 0.9315 -0.3638 -1.9192 37.0285)" fill="#FFFFFF" width="13.168" height="0.318"/>
	</g>
</g>
<g>
	<g>
		<circle fill="#FFFFFF" cx="22.792" cy="13.035" r="0.899"/>
	</g>
	<g>
		<circle fill="#FFFFFF" cx="9.294" cy="20.829" r="0.9"/>
	</g>
	<g>
		<circle fill="#FFFFFF" cx="18.005" cy="25.302" r="0.9"/>
	</g>
	<g>
		<circle fill="#FFFFFF" cx="15.448" cy="17.256" r="0.899"/>
	</g>
	<g>
		<circle fill="#FFFFFF" cx="9.294" cy="13.034" r="0.899"/>
	</g>
	<g>
		<circle fill="#FFFFFF" cx="15.449" cy="8.826" r="0.899"/>
	</g>
	<g>
		<circle fill="#FFFFFF" cx="18.004" cy="0.768" r="0.9"/>
	</g>
	<g>
		<circle fill="#FFFFFF" cx="1.345" cy="13.034" r="0.899"/>
	</g>
	<g>
		<circle fill="#FFFFFF" cx="14.118" cy="13.035" r="0.899"/>
	</g>
	<g>
		<path fill="#FFFFFF" d="M9.293,6.142c-0.495,0-0.899-0.404-0.898-0.899c-0.001-0.498,0.404-0.901,0.898-0.9
			c0.498,0.001,0.899,0.403,0.899,0.899C10.196,5.739,9.792,6.143,9.293,6.142z"/>
	</g>
	<g>
		<path fill="#FFFFFF" d="M9.135,21.106V4.969l13.975,8.066L9.135,21.106z M9.452,5.518v15.038l13.022-7.521L9.452,5.518z"/>
	</g>
	<g>
		
			<rect x="9.628" y="19.01" transform="matrix(-0.302 -0.9533 0.9533 -0.302 2.6392 40.2707)" fill="#FFFFFF" width="12.868" height="0.318"/>
	</g>
	<g>
		
			<rect x="15.902" y="0.467" transform="matrix(-0.9538 -0.3005 0.3005 -0.9538 29.306 18.3098)" fill="#FFFFFF" width="0.318" height="12.868"/>
	</g>
	<g>
		<rect x="1.346" y="12.877" fill="#FFFFFF" width="12.771" height="0.317"/>
	</g>
	<g>
		<path fill="#FFFFFF" d="M22.793,13.034"/>
	</g>
	<g>
		
			<rect x="20.238" y="12.584" transform="matrix(-0.9322 -0.3619 0.3619 -0.9322 32.4771 44.4185)" fill="#FFFFFF" width="0.318" height="13.169"/>
	</g>
	<g>
		
			<rect x="8.752" y="22.907" transform="matrix(-0.8896 -0.4567 0.4567 -0.8896 15.2564 49.818)" fill="#FFFFFF" width="9.792" height="0.318"/>
	</g>
	<g>
		
			<rect x="-0.245" y="16.773" transform="matrix(-0.7139 -0.7002 0.7002 -0.7139 -2.7371 32.7465)" fill="#FFFFFF" width="11.132" height="0.318"/>
	</g>
	<g>
		
			<rect x="5.162" y="3.574" transform="matrix(-0.7002 -0.714 0.714 -0.7002 2.521 19.336)" fill="#FFFFFF" width="0.318" height="11.129"/>
	</g>
	<g>
		
			<rect x="13.491" y="-1.891" transform="matrix(-0.4576 -0.8891 0.8891 -0.4576 17.2237 16.5176)" fill="#FFFFFF" width="0.318" height="9.793"/>
	</g>
	<g>
		
			<rect x="13.815" y="6.742" transform="matrix(-0.3637 -0.9315 0.9315 -0.3637 21.3904 28.4122)" fill="#FFFFFF" width="13.168" height="0.318"/>
	</g>
</g>
</svg>
