<?xml version="1.0" encoding="utf-8"?>
<!-- Generator: Adobe Illustrator 16.0.0, SVG Export Plug-In . SVG Version: 6.00 Build 0)  -->
<!DOCTYPE svg PUBLIC "-//W3C//DTD SVG 1.1//EN" "http://www.w3.org/Graphics/SVG/1.1/DTD/svg11.dtd">
<svg version="1.1" id="Layer_1" xmlns="http://www.w3.org/2000/svg" xmlns:xlink="http://www.w3.org/1999/xlink" x="0px" y="0px"
	 width="91.387px" height="26.334px" viewBox="0 -0.132 91.387 26.334" enable-background="new 0 -0.132 91.387 26.334"
	 xml:space="preserve">
<g>
	<path fill="#282828" d="M28.29,7.019h3.822c4.18,0,5.39,2.949,5.39,6.001c0,3.422-1.683,6.032-5.423,6.032H28.29V7.019z
		 M29.009,18.412h3.137c2.172,0,4.64-1.229,4.64-5.393c0-4.925-3.054-5.362-4.786-5.362H29.01L29.009,18.412L29.009,18.412z"/>
	<path fill="#282828" d="M38.857,14.804c-0.049,2.041,1.013,3.896,3.087,3.896c1.583,0,2.693-0.965,3.004-2.58h0.621
		c-0.328,2.039-1.617,3.137-3.625,3.137c-2.436,0-3.758-1.989-3.709-4.383c-0.048-2.375,1.176-4.687,3.709-4.687
		c2.612,0,3.82,2.124,3.688,4.617L38.857,14.804L38.857,14.804z M45.015,14.25c-0.049-1.821-1.159-3.505-3.069-3.505
		c-1.862,0-2.957,1.786-3.087,3.505H45.015z"/>
	<path fill="#282828" d="M46.881,16.171c0.082,1.603,1.272,2.529,2.777,2.529c1.094,0,2.661-0.338,2.661-1.84
		c0-2.93-5.766-0.908-5.766-4.449c0-1.702,1.613-2.225,3.033-2.225c1.766,0,3.105,0.792,3.105,2.764h-0.619
		c0-1.566-1.078-2.208-2.484-2.208c-1.125,0-2.416,0.438-2.416,1.668c0,1.397,1.438,1.584,2.793,1.901
		c1.666,0.321,2.977,0.743,2.977,2.547c0,1.871-1.813,2.395-3.284,2.395c-1.912,0-3.351-1.063-3.399-3.082H46.881L46.881,16.171z"/>
	<path fill="#282828" d="M54.057,8.754V7.019h0.621v1.736L54.057,8.754L54.057,8.754z M54.057,19.054v-8.665h0.621v8.663
		L54.057,19.054L54.057,19.054z"/>
	<path fill="#282828" d="M63.067,10.389v8.208c0,0.675,0,3.896-3.627,3.763c-1.781,0-3.199-0.693-3.283-2.697h0.623
		c0.131,1.531,1.307,2.137,2.678,2.137c2.938,0,2.988-2.479,2.988-3.051V16.76h-0.031c-0.59,1.281-1.602,1.976-3.039,1.976
		c-2.465,0-3.625-1.875-3.625-4.283c0-2.292,1.271-4.265,3.625-4.265c1.326,0,2.564,0.725,3.039,2.007h0.031v-1.804L63.067,10.389
		L63.067,10.389z M56.37,14.451c0,2.041,1.025,3.729,3.004,3.729c2.041,0,3.053-1.77,3.053-3.729c0-1.955-1.012-3.708-3.053-3.708
		C57.35,10.744,56.37,12.615,56.37,14.451z"/>
	<path fill="#282828" d="M64.477,10.389h0.619v1.854h0.032c0.44-1.298,1.681-2.056,3.006-2.056c2.955,0,2.988,2.442,2.988,3.507
		v5.357h-0.621v-5.477c0-0.877-0.097-2.833-2.385-2.833c-1.896,0-3.021,1.518-3.021,3.625v4.686h-0.619V10.389L64.477,10.389z"/>
	<path fill="#282828" d="M72.723,14.804c-0.052,2.041,1.01,3.896,3.084,3.896c1.586,0,2.696-0.965,3.006-2.58h0.619
		c-0.324,2.039-1.613,3.137-3.625,3.137c-2.437,0-3.757-1.989-3.707-4.383c-0.05-2.375,1.178-4.687,3.707-4.687
		c2.614,0,3.821,2.124,3.692,4.617L72.723,14.804L72.723,14.804z M78.879,14.25c-0.049-1.821-1.155-3.505-3.069-3.505
		c-1.861,0-2.957,1.786-3.086,3.505H78.879z"/>
	<path fill="#282828" d="M81.143,12.312h0.051c0.311-1.146,1.699-2.023,3.217-1.973v0.641c-0.652-0.083-1.553,0.085-2.318,0.844
		c-0.604,0.673-0.896,1.195-0.945,2.493v4.737h-0.619v-8.665h0.619v1.923H81.143L81.143,12.312z"/>
	<path fill="#282828" d="M84.403,10.389h0.734l3.118,7.907l2.875-7.907h0.701l-3.594,9.594c-0.346,0.856-0.604,1.498-0.979,1.785
		c-0.439,0.354-0.996,0.387-1.961,0.387V21.6c0.896,0,1.307-0.103,1.746-0.558c0.246-0.254,0.477-0.896,0.867-2.041L84.403,10.389z"
		/>
</g>
<g opacity="0.15">
	<g>
		<circle fill="#231F20" cx="9.294" cy="13.035" r="0.899"/>
	</g>
	<g>
		<circle fill="#231F20" cx="22.792" cy="5.241" r="0.9"/>
	</g>
	<g>
		<circle fill="#231F20" cx="14.081" cy="0.768" r="0.9"/>
	</g>
	<g>
		<circle fill="#231F20" cx="22.792" cy="13.035" r="0.899"/>
	</g>
	<g>
		<circle fill="#231F20" cx="14.082" cy="25.302" r="0.9"/>
	</g>
	<g>
		<circle fill="#231F20" cx="32.538" cy="13.036" r="0.899"/>
	</g>
	<g>
		<circle fill="#231F20" cx="14.117" cy="13.035" r="0.899"/>
	</g>
	<g>
		<path fill="#231F20" d="M22.792,19.928c0.495,0,0.9,0.404,0.899,0.899c0.001,0.497-0.405,0.9-0.899,0.899
			c-0.498-0.001-0.899-0.403-0.899-0.898C21.89,20.332,22.293,19.927,22.792,19.928z"/>
	</g>
	<g>
		<path fill="#231F20" d="M22.95,21.103L8.974,13.036L22.95,4.966V21.103z M9.609,13.036l13.024,7.516V5.515L9.609,13.036z"/>
	</g>
	<g>
		
			<rect x="10.7" y="4.639" transform="matrix(0.1738 0.9848 -0.9848 0.1738 16.9451 -10.6018)" fill="#231F20" width="8.182" height="0.317"/>
	</g>
	<g>
		
			<rect x="14.606" y="17.219" transform="matrix(0.9861 0.1661 -0.1661 0.9861 3.7424 -2.1571)" fill="#231F20" width="0.317" height="8.142"/>
	</g>
	<g>
		<rect x="14.118" y="12.877" fill="#231F20" width="18.419" height="0.317"/>
	</g>
	<g>
		<path fill="none" d="M9.292,13.036"/>
	</g>
	<g>
		
			<rect x="11.527" y="0.318" transform="matrix(0.9318 0.3629 -0.3629 0.9318 3.3015 -3.7701)" fill="#231F20" width="0.318" height="13.169"/>
	</g>
	<g>
		
			<rect x="13.54" y="2.846" transform="matrix(0.8897 0.4566 -0.4566 0.8897 3.4064 -8.087)" fill="#231F20" width="9.793" height="0.317"/>
	</g>
	<g>
		
			<rect x="21.425" y="8.979" transform="matrix(0.7809 0.6246 -0.6246 0.7809 11.7687 -15.2782)" fill="#231F20" width="12.479" height="0.318"/>
	</g>
	<g>
		
			<rect x="27.506" y="10.693" transform="matrix(0.6243 0.7812 -0.7812 0.6243 23.6192 -15.2497)" fill="#231F20" width="0.318" height="12.477"/>
	</g>
	<g>
		
			<rect x="18.277" y="18.168" transform="matrix(0.457 0.8895 -0.8895 0.457 30.5266 -3.8741)" fill="#231F20" width="0.318" height="9.793"/>
	</g>
	<g>
		
			<rect x="5.102" y="19.011" transform="matrix(0.3637 0.9315 -0.9315 0.3637 25.2932 1.312)" fill="#231F20" width="13.168" height="0.318"/>
	</g>
</g>
<g>
	<g>
		<circle fill="#231F20" cx="22.792" cy="13.035" r="0.899"/>
	</g>
	<g>
		<circle fill="#231F20" cx="9.294" cy="20.829" r="0.9"/>
	</g>
	<g>
		<circle fill="#231F20" cx="18.005" cy="25.302" r="0.9"/>
	</g>
	<g>
		<circle fill="#231F20" cx="15.448" cy="17.256" r="0.9"/>
	</g>
	<g>
		<circle fill="#231F20" cx="9.294" cy="13.034" r="0.899"/>
	</g>
	<g>
		<circle fill="#231F20" cx="15.449" cy="8.826" r="0.899"/>
	</g>
	<g>
		<circle fill="#231F20" cx="18.004" cy="0.768" r="0.9"/>
	</g>
	<g>
		<circle fill="#231F20" cx="1.345" cy="13.034" r="0.899"/>
	</g>
	<g>
		<circle fill="#231F20" cx="14.118" cy="13.035" r="0.899"/>
	</g>
	<g>
		<path fill="#231F20" d="M9.293,6.142c-0.495,0-0.899-0.404-0.898-0.899c-0.001-0.498,0.404-0.901,0.898-0.9
			c0.498,0.001,0.9,0.403,0.9,0.899C10.196,5.739,9.792,6.143,9.293,6.142z"/>
	</g>
	<g>
		<path fill="#231F20" d="M9.135,21.106V4.969l13.975,8.066L9.135,21.106z M9.452,5.518v15.037l13.023-7.521L9.452,5.518z"/>
	</g>
	<g>
		
			<rect x="9.627" y="19.01" transform="matrix(0.3021 0.9533 -0.9533 0.3021 29.4833 -1.9323)" fill="#231F20" width="12.868" height="0.318"/>
	</g>
	<g>
		
			<rect x="15.902" y="0.467" transform="matrix(0.9535 0.3014 -0.3014 0.9535 2.8273 -4.5201)" fill="#231F20" width="0.318" height="12.868"/>
	</g>
	<g>
		<rect x="1.346" y="12.877" fill="#231F20" width="12.771" height="0.317"/>
	</g>
	<g>
		<path fill="none" d="M22.793,13.034"/>
	</g>
	<g>
		
			<rect x="20.24" y="12.584" transform="matrix(0.9318 0.3629 -0.3629 0.9318 8.3465 -6.0958)" fill="#231F20" width="0.318" height="13.169"/>
	</g>
	<g>
		
			<rect x="8.753" y="22.907" transform="matrix(0.8896 0.4567 -0.4567 0.8896 12.0404 -3.6875)" fill="#231F20" width="9.792" height="0.318"/>
	</g>
	<g>
		
			<rect x="-0.246" y="16.774" transform="matrix(0.7139 0.7002 -0.7002 0.7139 13.3789 1.1189)" fill="#231F20" width="11.132" height="0.318"/>
	</g>
	<g>
		
			<rect x="5.161" y="3.574" transform="matrix(0.7009 0.7132 -0.7132 0.7009 8.1095 -1.0611)" fill="#231F20" width="0.318" height="11.13"/>
	</g>
	<g>
		
			<rect x="13.49" y="-1.891" transform="matrix(0.4583 0.8888 -0.8888 0.4583 10.0656 -10.503)" fill="#231F20" width="0.318" height="9.793"/>
	</g>
	<g>
		
			<rect x="13.814" y="6.742" transform="matrix(0.3637 0.9315 -0.9315 0.3637 19.4083 -14.6101)" fill="#231F20" width="13.168" height="0.318"/>
	</g>
</g>
</svg>
